<?xml version="1.0" standalone="no"?>
<!DOCTYPE svg PUBLIC "-//W3C//DTD SVG 20010904//EN"
 "http://www.w3.org/TR/2001/REC-SVG-20010904/DTD/svg10.dtd">
<svg version="1.0" xmlns="http://www.w3.org/2000/svg"
 width="1000.000000pt" height="1000.000000pt" viewBox="0 0 1000.000000 1000.000000"
 preserveAspectRatio="xMidYMid meet">
<metadata>
Created by potrace 1.11, written by Peter Selinger 2001-2013
</metadata>
<g transform="translate(0.000000,1000.000000) scale(0.100000,-0.100000)"
fill="#000000" stroke="none">
<path d="M4590 9807 c-144 -51 -249 -142 -319 -276 -23 -45 -40 -81 -37 -81 2
0 -2 -19 -8 -42 -13 -43 -22 -168 -12 -168 3 0 45 13 93 30 114 38 255 60 366
57 81 -2 92 1 88 25 0 4 -3 44 -7 89 -3 46 -7 96 -10 113 -4 34 -17 204 -18
249 -1 24 -5 27 -36 27 -19 0 -64 -11 -100 -23z"/>
<path d="M4655 9222 c-22 -1 -78 -10 -125 -18 -409 -74 -763 -365 -978 -806
-103 -210 -142 -375 -142 -598 0 -246 74 -485 225 -721 174 -271 502 -569 848
-770 33 -19 73 -42 90 -53 18 -10 70 -39 117 -64 47 -25 102 -56 122 -69 21
-12 40 -23 42 -23 12 0 282 -186 371 -255 218 -170 431 -380 586 -577 24 -31
52 -67 62 -80 36 -44 154 -223 197 -298 42 -72 160 -304 160 -315 0 -3 9 -24
20 -48 87 -187 181 -600 183 -801 l0 -40 23 30 c13 16 24 34 24 40 0 6 6 17
14 23 20 16 128 257 171 381 40 115 90 299 100 370 4 24 8 47 10 50 2 3 6 29
10 59 4 30 9 63 11 75 9 46 18 227 18 346 -2 317 -41 551 -125 737 -10 24 -19
45 -19 47 0 9 -107 196 -138 241 -125 181 -339 401 -549 564 -166 129 -412
291 -738 486 -248 148 -454 283 -533 348 -185 155 -258 228 -370 372 -4 6 -24
37 -44 70 -120 201 -164 418 -131 655 28 202 107 362 235 478 92 83 251 155
344 155 14 0 22 2 20 5 -7 6 -57 8 -111 4z"/>
<path d="M4732 9086 c-112 -28 -236 -113 -316 -215 -31 -40 -82 -161 -101
-238 -17 -72 -27 -239 -17 -301 l4 -33 30 57 c33 66 88 142 141 195 211 211
545 151 697 -126 l22 -40 -6 67 c-4 37 -15 94 -26 128 -19 58 -19 65 -4 111
63 192 -85 393 -298 404 -42 3 -95 -1 -126 -9z"/>
<path d="M3169 7803 c0 -5 -2 -15 -4 -23 -5 -23 -23 -140 -30 -193 -7 -56 -8
-292 -1 -323 2 -12 7 -45 11 -75 9 -72 40 -196 70 -275 145 -386 489 -706 943
-878 40 -16 75 -26 77 -24 2 2 -35 34 -83 70 -284 216 -546 504 -703 769 -114
195 -217 456 -243 619 -3 19 -8 46 -10 60 -10 58 -17 140 -17 208 -1 39 -3 72
-5 72 -2 0 -4 -3 -5 -7z"/>
<path d="M2326 6198 c-27 -15 -19 -54 16 -80 119 -86 221 -224 261 -353 35
-109 41 -277 15 -395 -6 -30 -12 -57 -13 -60 -6 -31 -46 -132 -78 -200 -99
-209 -287 -435 -517 -619 -130 -105 -173 -132 -335 -211 -177 -87 -296 -131
-493 -181 -86 -22 -178 -52 -203 -66 -130 -70 -223 -239 -215 -389 6 -92 48
-184 86 -184 48 0 50 4 64 140 19 172 124 284 266 283 174 0 292 -132 277
-308 -21 -240 -248 -536 -540 -706 -82 -47 -93 -60 -77 -90 17 -30 47 -23 176
40 489 241 748 701 579 1030 -13 25 -32 55 -42 66 -65 72 -83 98 -83 124 0 35
10 43 145 121 575 330 974 793 1101 1280 22 86 27 284 8 370 -28 131 -122 278
-219 343 -55 37 -150 61 -179 45z"/>
<path d="M7614 6200 c-145 -32 -285 -199 -329 -390 -15 -65 -15 -254 0 -330
26 -139 111 -341 205 -490 209 -331 576 -658 972 -869 93 -50 99 -93 26 -173
-68 -74 -79 -93 -109 -183 -17 -52 -17 -217 0 -280 20 -72 63 -162 115 -243
53 -84 193 -228 291 -300 98 -72 309 -182 352 -182 20 0 41 29 36 48 -2 10
-34 36 -71 57 -143 82 -300 220 -397 350 -143 190 -192 408 -120 531 35 60 56
78 122 110 200 96 386 -51 395 -311 2 -61 14 -85 43 -85 61 0 100 84 98 215
-1 197 -144 366 -343 406 -107 21 -300 80 -415 127 -83 34 -302 146 -350 180
-387 269 -656 617 -737 952 -22 89 -30 249 -17 310 4 19 10 49 12 65 22 132
139 304 275 403 20 15 32 32 32 47 0 36 -29 48 -86 35z"/>
<path d="M1065 5949 c-68 -20 -74 -89 -18 -200 42 -83 150 -200 243 -260 51
-34 191 -108 207 -110 5 -1 19 -6 33 -11 123 -47 354 -68 448 -40 45 14 57 30
20 27 -76 -6 -276 89 -420 198 -89 68 -187 154 -296 261 -67 66 -128 123 -135
127 -26 14 -53 17 -82 8z"/>
<path d="M8886 5949 c-16 -5 -84 -63 -164 -141 -76 -73 -173 -162 -217 -197
-181 -145 -366 -246 -468 -254 -102 -9 0 -41 128 -41 120 0 183 10 287 44 169
57 293 132 405 247 122 125 177 270 122 322 -25 23 -55 30 -93 20z"/>
<path d="M4675 5678 c203 -179 359 -407 450 -658 30 -83 28 -77 49 -175 36
-168 36 -322 1 -510 -4 -16 -19 -69 -35 -117 -85 -254 -230 -429 -462 -557
-51 -28 -209 -86 -262 -97 -130 -26 -277 -34 -366 -20 -25 4 -57 9 -71 12
-159 25 -348 133 -444 252 -68 85 -127 222 -150 347 -24 130 -8 287 42 415 49
125 171 283 282 365 43 31 42 31 -53 0 -382 -125 -697 -448 -829 -850 -52
-157 -68 -256 -71 -429 -9 -505 260 -939 719 -1161 183 -88 378 -145 555 -160
90 -8 388 -9 445 -1 22 3 65 8 95 11 52 5 69 8 130 20 14 3 41 8 60 11 64 11
256 73 348 113 359 155 623 430 755 784 36 97 72 231 82 307 20 156 23 201 20
350 -1 91 -8 199 -14 240 -44 283 -153 542 -330 780 -209 280 -528 542 -870
714 -119 61 -132 63 -76 14z"/>
<path d="M1375 5328 c-269 -25 -545 -132 -755 -291 -232 -176 -405 -461 -357
-588 13 -32 76 -69 118 -69 50 1 114 57 248 215 143 169 401 415 526 501 161
111 251 163 385 222 24 10 24 11 -10 12 -19 1 -46 2 -60 3 -14 1 -56 -1 -95
-5z"/>
<path d="M8500 5330 c-47 -4 -51 -6 -30 -14 88 -30 348 -184 436 -257 185
-155 320 -287 457 -444 106 -122 209 -225 226 -227 59 -5 79 -3 113 15 73 40
70 140 -8 285 -154 284 -492 523 -859 608 -135 31 -247 42 -335 34z"/>
<path d="M7125 4279 c2 -30 -16 -162 -34 -249 -120 -588 -475 -1110 -980
-1445 -128 -84 -300 -177 -433 -234 -27 -11 -48 -22 -48 -24 0 -7 130 3 245
19 534 75 946 340 1150 740 43 85 98 237 110 305 3 18 7 35 9 38 2 3 7 31 11
61 3 30 10 71 14 90 17 76 8 462 -12 571 -3 15 -8 52 -12 83 -7 53 -23 90 -20
45z"/>
<path d="M1100 2014 c-222 -46 -365 -170 -287 -248 33 -33 68 -33 182 0 50 14
97 27 105 29 8 2 49 11 90 20 223 49 468 56 569 17 30 -12 56 -20 58 -18 2 2
-14 22 -37 44 -131 128 -452 202 -680 156z"/>
<path d="M8869 2026 c-2 -2 -24 -7 -48 -10 -144 -19 -307 -88 -380 -158 -23
-23 -40 -42 -39 -44 2 -1 30 7 63 18 85 30 315 31 468 3 129 -24 173 -34 277
-64 119 -35 156 -38 188 -15 96 67 -20 192 -233 249 -54 15 -285 31 -296 21z"/>
<path d="M2220 1725 c-286 -48 -477 -171 -569 -365 -32 -68 -36 -83 -36 -160
0 -94 17 -143 51 -148 28 -4 41 14 47 68 23 172 91 296 223 401 153 122 347
179 587 173 56 -1 116 -5 132 -8 17 -2 50 -8 75 -11 25 -4 90 -18 145 -31 372
-94 624 -249 955 -589 41 -42 95 -87 120 -100 149 -75 330 -48 438 64 42 43
54 74 42 105 -10 29 -38 28 -99 -3 -93 -47 -192 -57 -269 -26 -84 34 -143 136
-136 237 10 164 174 262 424 253 52 -2 106 -6 120 -9 177 -38 294 -82 434
-167 21 -13 34 -15 48 -8 33 18 21 47 -39 94 -297 230 -702 305 -950 176 -101
-53 -168 -130 -203 -236 -37 -110 -62 -118 -166 -54 -72 44 -288 154 -369 187
-190 79 -315 115 -545 157 -71 13 -384 13 -460 0z"/>
<path d="M5870 1729 c-157 -19 -352 -91 -485 -180 -127 -84 -159 -126 -117
-148 15 -8 34 -1 86 29 154 90 355 150 517 155 197 6 334 -47 397 -154 23 -38
27 -58 27 -116 -1 -101 -42 -173 -125 -215 -74 -38 -169 -31 -277 21 -66 32
-97 32 -106 0 -13 -50 56 -129 151 -174 55 -26 80 -31 147 -32 143 -3 193 24
367 198 259 260 467 394 764 492 308 103 609 117 841 40 249 -83 429 -287 450
-509 5 -60 20 -86 50 -86 45 0 69 156 38 251 -68 210 -252 351 -538 415 -85
19 -381 27 -472 14 -33 -5 -80 -12 -105 -16 -25 -3 -48 -8 -51 -10 -3 -2 -21
-6 -40 -9 -74 -13 -236 -64 -364 -115 -112 -45 -346 -164 -425 -217 -46 -31
-83 -30 -109 3 -12 15 -21 34 -21 43 0 36 -61 141 -109 188 -110 107 -290 155
-491 132z"/>
<path d="M2640 1161 c11 -23 18 -41 15 -41 -3 0 -1 -9 6 -21 13 -26 20 -232 9
-314 -21 -166 -43 -271 -80 -395 -45 -147 -43 -185 13 -215 31 -16 36 -16 64
-2 76 40 147 177 170 326 9 60 9 192 0 261 -21 171 -112 372 -192 424 l-26 17
21 -40z"/>
<path d="M7552 1159 c-62 -62 -138 -224 -156 -330 -34 -200 -22 -353 37 -494
67 -162 172 -221 222 -125 16 32 15 50 -9 133 -36 124 -61 235 -80 347 -32
189 -26 356 14 463 10 26 17 47 15 47 -2 0 -21 -18 -43 -41z"/>
<path d="M2850 843 c0 -14 65 -124 103 -175 51 -68 146 -168 213 -224 233
-193 475 -286 729 -281 133 3 197 26 219 78 24 57 -6 129 -64 151 -33 13 -34
13 -195 47 -324 68 -510 128 -720 231 -77 38 -173 94 -212 124 -40 30 -73 52
-73 49z"/>
<path d="M7345 826 c-91 -70 -244 -158 -365 -209 -110 -46 -331 -118 -404
-131 -11 -2 -41 -9 -66 -16 -25 -7 -56 -14 -70 -17 -197 -35 -292 -64 -320
-98 -21 -26 -20 -116 2 -139 75 -75 350 -72 558 7 276 104 536 324 667 567 18
33 32 60 30 60 -1 0 -15 -11 -32 -24z"/>
<path d="M5017 632 l-97 -97 97 -97 98 -97 93 93 c50 52 92 96 92 100 0 4 -42
49 -93 101 l-93 94 -97 -97z"/>
</g>
</svg>
